<svg xmlns="http://www.w3.org/2000/svg" xmlns:xlink="http://www.w3.org/1999/xlink" width="1000" zoomAndPan="magnify" viewBox="0 0 750 374.999991" height="500" preserveAspectRatio="xMidYMid meet" version="1.2"><defs/><g id="ad55c4a412"><rect x="0" width="750" y="0" height="374.999991" style="fill:#ffffff;fill-opacity:1;stroke:none;"/><rect x="0" width="750" y="0" height="374.999991" style="fill:#000000;fill-opacity:1;stroke:none;"/><g style="fill:#ffffff;fill-opacity:1;"><g transform="translate(114.346869, 227.154609)"><path style="stroke:none" d="M 5.875 0 L 5.875 -77.796875 L 28.734375 -77.796875 L 48.25 -26.953125 L 48.578125 -26.953125 L 68.09375 -77.796875 L 90.9375 -77.796875 L 90.9375 0 L 73.53125 0 L 73.53125 -48.625 L 73.09375 -48.625 L 54.078125 0 L 42.75 0 L 23.71875 -48.625 L 23.28125 -48.625 L 23.28125 0 Z M 5.875 0 "/></g></g><g style="fill:#ffffff;fill-opacity:1;"><g transform="translate(211.164542, 227.154609)"><path style="stroke:none" d="M 15.578125 19.140625 C 13.710938 19.140625 11.914062 19.046875 10.1875 18.859375 C 8.457031 18.679688 7.054688 18.503906 5.984375 18.328125 L 5.984375 4.46875 C 6.597656 4.613281 7.460938 4.75 8.578125 4.875 C 9.691406 5 10.984375 5.0625 12.453125 5.0625 C 14.460938 5.0625 16.050781 4.75 17.21875 4.125 C 18.382812 3.5 19.203125 2.535156 19.671875 1.234375 L 20.109375 0 L -0.109375 -58.703125 L 21.03125 -58.703125 L 31.53125 -14.34375 L 32.015625 -14.34375 L 42.484375 -58.703125 L 62.640625 -58.703125 L 43.9375 -0.265625 C 42.351562 4.796875 40.25 8.726562 37.625 11.53125 C 35 14.332031 31.863281 16.300781 28.21875 17.4375 C 24.570312 18.570312 20.359375 19.140625 15.578125 19.140625 Z M 15.578125 19.140625 "/></g></g><g style="fill:#4e7fff;fill-opacity:1;"><g transform="translate(273.698421, 227.154609)"><path style="stroke:none" d="M 35.84375 1.40625 C 29.414062 1.40625 23.816406 0.476562 19.046875 -1.375 C 14.285156 -3.226562 10.554688 -5.894531 7.859375 -9.375 C 5.171875 -12.863281 3.679688 -17.085938 3.390625 -22.046875 L 3.34375 -23.015625 L 21.71875 -23.015625 L 21.828125 -22.421875 C 22.148438 -20.773438 22.96875 -19.320312 24.28125 -18.0625 C 25.59375 -16.800781 27.28125 -15.828125 29.34375 -15.140625 C 31.414062 -14.460938 33.710938 -14.125 36.234375 -14.125 C 40.179688 -14.125 43.285156 -14.882812 45.546875 -16.40625 C 47.816406 -17.9375 48.953125 -19.90625 48.953125 -22.3125 L 48.953125 -22.375 C 48.953125 -23.84375 48.535156 -25.082031 47.703125 -26.09375 C 46.878906 -27.101562 45.550781 -27.96875 43.71875 -28.6875 C 41.882812 -29.40625 39.441406 -30.050781 36.390625 -30.625 L 28.40625 -32.125 C 20.71875 -33.5625 14.867188 -36.15625 10.859375 -39.90625 C 6.859375 -43.664062 4.859375 -48.53125 4.859375 -54.5 L 4.859375 -54.5625 C 4.859375 -58.289062 5.617188 -61.675781 7.140625 -64.71875 C 8.671875 -67.757812 10.816406 -70.359375 13.578125 -72.515625 C 16.347656 -74.671875 19.609375 -76.320312 23.359375 -77.46875 C 27.117188 -78.613281 31.226562 -79.1875 35.6875 -79.1875 C 42.195312 -79.1875 47.734375 -78.222656 52.296875 -76.296875 C 56.859375 -74.378906 60.382812 -71.675781 62.875 -68.1875 C 65.375 -64.707031 66.734375 -60.613281 66.953125 -55.90625 L 67.015625 -54.765625 L 48.625 -54.765625 L 48.578125 -55.359375 C 48.285156 -57.910156 46.976562 -59.929688 44.65625 -61.421875 C 42.34375 -62.921875 39.40625 -63.671875 35.84375 -63.671875 C 32.21875 -63.671875 29.414062 -62.929688 27.4375 -61.453125 C 25.457031 -59.984375 24.46875 -58.132812 24.46875 -55.90625 L 24.46875 -55.84375 C 24.46875 -53.757812 25.429688 -52.109375 27.359375 -50.890625 C 29.285156 -49.671875 32.332031 -48.664062 36.5 -47.875 L 44.46875 -46.359375 C 52.738281 -44.773438 58.832031 -42.210938 62.75 -38.671875 C 66.664062 -35.140625 68.625 -30.265625 68.625 -24.046875 L 68.625 -23.984375 C 68.625 -18.816406 67.320312 -14.335938 64.71875 -10.546875 C 62.113281 -6.753906 58.363281 -3.8125 53.46875 -1.71875 C 48.582031 0.363281 42.707031 1.40625 35.84375 1.40625 Z M 35.84375 1.40625 "/></g></g><g style="fill:#4e7fff;fill-opacity:1;"><g transform="translate(345.556979, 227.154609)"><path style="stroke:none" d="M 32.671875 1.234375 C 26.523438 1.234375 21.210938 0.00390625 16.734375 -2.453125 C 12.265625 -4.910156 8.820312 -8.429688 6.40625 -13.015625 C 4 -17.597656 2.796875 -23.050781 2.796875 -29.375 L 2.796875 -29.4375 C 2.796875 -35.757812 4 -41.191406 6.40625 -45.734375 C 8.820312 -50.285156 12.253906 -53.789062 16.703125 -56.25 C 21.160156 -58.71875 26.425781 -59.953125 32.5 -59.953125 C 36.632812 -59.953125 40.390625 -59.363281 43.765625 -58.1875 C 47.148438 -57.019531 50.054688 -55.367188 52.484375 -53.234375 C 54.910156 -51.097656 56.785156 -48.570312 58.109375 -45.65625 C 59.441406 -42.75 60.144531 -39.550781 60.21875 -36.0625 L 60.265625 -35.6875 L 42.703125 -35.6875 L 42.640625 -36.234375 C 42.285156 -38.960938 41.257812 -41.179688 39.5625 -42.890625 C 37.875 -44.597656 35.628906 -45.453125 32.828125 -45.453125 C 29.523438 -45.453125 26.925781 -44.046875 25.03125 -41.234375 C 23.144531 -38.429688 22.203125 -34.476562 22.203125 -29.375 L 22.203125 -29.328125 C 22.203125 -24.148438 23.132812 -20.175781 25 -17.40625 C 26.875 -14.644531 29.503906 -13.265625 32.890625 -13.265625 C 35.691406 -13.265625 37.925781 -14.097656 39.59375 -15.765625 C 41.269531 -17.441406 42.285156 -19.679688 42.640625 -22.484375 L 42.75 -23.015625 L 60.265625 -23.015625 L 60.265625 -22.640625 C 60.160156 -19.222656 59.460938 -16.066406 58.171875 -13.171875 C 56.878906 -10.285156 55.046875 -7.765625 52.671875 -5.609375 C 50.296875 -3.453125 47.425781 -1.769531 44.0625 -0.5625 C 40.707031 0.632812 36.910156 1.234375 32.671875 1.234375 Z M 32.671875 1.234375 "/></g></g><g style="fill:#4e7fff;fill-opacity:1;"><g transform="translate(408.25128, 227.154609)"><path style="stroke:none" d="M 4.90625 0 L 4.90625 -77.796875 L 24.046875 -77.796875 L 24.046875 -48.140625 L 24.421875 -48.140625 C 25.890625 -51.984375 28.125 -54.910156 31.125 -56.921875 C 34.132812 -58.941406 37.847656 -59.953125 42.265625 -59.953125 C 46.546875 -59.953125 50.203125 -59.039062 53.234375 -57.21875 C 56.273438 -55.40625 58.601562 -52.8125 60.21875 -49.4375 C 61.832031 -46.0625 62.640625 -42.019531 62.640625 -37.3125 L 62.640625 0 L 43.5 0 L 43.5 -33.203125 C 43.5 -36.691406 42.679688 -39.425781 41.046875 -41.40625 C 39.410156 -43.382812 37.015625 -44.375 33.859375 -44.375 C 31.847656 -44.375 30.101562 -43.894531 28.625 -42.9375 C 27.15625 -41.988281 26.023438 -40.675781 25.234375 -39 C 24.441406 -37.332031 24.046875 -35.421875 24.046875 -33.265625 L 24.046875 0 Z M 4.90625 0 "/></g></g><g style="fill:#4e7fff;fill-opacity:1;"><g transform="translate(475.365987, 227.154609)"><path style="stroke:none" d="M 32.828125 1.234375 C 26.648438 1.234375 21.3125 0.03125 16.8125 -2.375 C 12.320312 -4.78125 8.863281 -8.265625 6.4375 -12.828125 C 4.007812 -17.390625 2.796875 -22.890625 2.796875 -29.328125 L 2.796875 -29.4375 C 2.796875 -35.789062 4.035156 -41.238281 6.515625 -45.78125 C 9.003906 -50.332031 12.492188 -53.832031 16.984375 -56.28125 C 21.472656 -58.726562 26.753906 -59.953125 32.828125 -59.953125 C 38.941406 -59.953125 44.242188 -58.738281 48.734375 -56.3125 C 53.222656 -53.882812 56.695312 -50.394531 59.15625 -45.84375 C 61.625 -41.300781 62.859375 -35.832031 62.859375 -29.4375 L 62.859375 -29.328125 C 62.859375 -22.859375 61.632812 -17.347656 59.1875 -12.796875 C 56.75 -8.253906 53.289062 -4.78125 48.8125 -2.375 C 44.34375 0.03125 39.015625 1.234375 32.828125 1.234375 Z M 32.890625 -13.265625 C 36.160156 -13.265625 38.742188 -14.65625 40.640625 -17.4375 C 42.546875 -20.226562 43.5 -24.191406 43.5 -29.328125 L 43.5 -29.4375 C 43.5 -34.5 42.53125 -38.429688 40.59375 -41.234375 C 38.65625 -44.046875 36.066406 -45.453125 32.828125 -45.453125 C 29.597656 -45.453125 27.019531 -44.046875 25.09375 -41.234375 C 23.164062 -38.429688 22.203125 -34.5 22.203125 -29.4375 L 22.203125 -29.328125 C 22.203125 -24.148438 23.15625 -20.175781 25.0625 -17.40625 C 26.96875 -14.644531 29.578125 -13.265625 32.890625 -13.265625 Z M 32.890625 -13.265625 "/></g></g><g style="fill:#4e7fff;fill-opacity:1;"><g transform="translate(541.025201, 227.154609)"><path style="stroke:none" d="M 32.828125 1.234375 C 26.648438 1.234375 21.3125 0.03125 16.8125 -2.375 C 12.320312 -4.78125 8.863281 -8.265625 6.4375 -12.828125 C 4.007812 -17.390625 2.796875 -22.890625 2.796875 -29.328125 L 2.796875 -29.4375 C 2.796875 -35.789062 4.035156 -41.238281 6.515625 -45.78125 C 9.003906 -50.332031 12.492188 -53.832031 16.984375 -56.28125 C 21.472656 -58.726562 26.753906 -59.953125 32.828125 -59.953125 C 38.941406 -59.953125 44.242188 -58.738281 48.734375 -56.3125 C 53.222656 -53.882812 56.695312 -50.394531 59.15625 -45.84375 C 61.625 -41.300781 62.859375 -35.832031 62.859375 -29.4375 L 62.859375 -29.328125 C 62.859375 -22.859375 61.632812 -17.347656 59.1875 -12.796875 C 56.75 -8.253906 53.289062 -4.78125 48.8125 -2.375 C 44.34375 0.03125 39.015625 1.234375 32.828125 1.234375 Z M 32.890625 -13.265625 C 36.160156 -13.265625 38.742188 -14.65625 40.640625 -17.4375 C 42.546875 -20.226562 43.5 -24.191406 43.5 -29.328125 L 43.5 -29.4375 C 43.5 -34.5 42.53125 -38.429688 40.59375 -41.234375 C 38.65625 -44.046875 36.066406 -45.453125 32.828125 -45.453125 C 29.597656 -45.453125 27.019531 -44.046875 25.09375 -41.234375 C 23.164062 -38.429688 22.203125 -34.5 22.203125 -29.4375 L 22.203125 -29.328125 C 22.203125 -24.148438 23.15625 -20.175781 25.0625 -17.40625 C 26.96875 -14.644531 29.578125 -13.265625 32.890625 -13.265625 Z M 32.890625 -13.265625 "/></g></g><g style="fill:#4e7fff;fill-opacity:1;"><g transform="translate(606.684391, 227.154609)"><path style="stroke:none" d="M 4.90625 0 L 4.90625 -77.796875 L 24.046875 -77.796875 L 24.046875 0 Z M 4.90625 0 "/></g></g></g></svg>