<svg xmlns="http://www.w3.org/2000/svg" xmlns:xlink="http://www.w3.org/1999/xlink" width="1000" zoomAndPan="magnify" viewBox="0 0 375 233.04" height="300" preserveAspectRatio="xMidYMid meet" version="1.0"><defs><g/><clipPath id="87fcecbcf3"><path d="M 63 33 L 374.230469 33 L 374.230469 191 L 63 191 Z M 63 33 " clip-rule="nonzero"/></clipPath><clipPath id="2fba73b1fa"><path d="M 279 54 L 311.230469 54 L 311.230469 127 L 279 127 Z M 279 54 " clip-rule="nonzero"/></clipPath><clipPath id="29fced31c5"><rect x="0" width="312" y="0" height="158"/></clipPath></defs><g clip-path="url(#87fcecbcf3)"><g transform="matrix(1, 0, 0, 1, 63, 33)"><g clip-path="url(#29fced31c5)"><g fill="#ffffff" fill-opacity="1"><g transform="translate(0.54157, 125.525079)"><g><path d="M 7 0 L 7 -92.734375 L 34.25 -92.734375 L 57.515625 -32.125 L 57.90625 -32.125 L 81.15625 -92.734375 L 108.40625 -92.734375 L 108.40625 0 L 87.65625 0 L 87.65625 -57.96875 L 87.140625 -57.96875 L 64.453125 0 L 50.953125 0 L 28.28125 -57.96875 L 27.765625 -57.96875 L 27.765625 0 Z M 7 0 "/></g></g></g><g fill="#ffffff" fill-opacity="1"><g transform="translate(115.944775, 125.525079)"><g><path d="M 18.578125 22.8125 C 16.347656 22.8125 14.203125 22.703125 12.140625 22.484375 C 10.085938 22.273438 8.421875 22.0625 7.140625 21.84375 L 7.140625 5.328125 C 7.859375 5.503906 8.878906 5.664062 10.203125 5.8125 C 11.535156 5.96875 13.082031 6.046875 14.84375 6.046875 C 17.238281 6.046875 19.132812 5.671875 20.53125 4.921875 C 21.925781 4.171875 22.898438 3.023438 23.453125 1.484375 L 23.96875 0 L -0.125 -69.984375 L 25.0625 -69.984375 L 37.59375 -17.09375 L 38.171875 -17.09375 L 50.640625 -69.984375 L 74.671875 -69.984375 L 52.375 -0.328125 C 50.488281 5.710938 47.976562 10.40625 44.84375 13.75 C 41.71875 17.09375 37.984375 19.4375 33.640625 20.78125 C 29.296875 22.132812 24.273438 22.8125 18.578125 22.8125 Z M 18.578125 22.8125 "/></g></g></g><g fill="#4e7fff" fill-opacity="1"><g transform="translate(190.482921, 125.525079)"><g><path d="M 42.734375 1.671875 C 35.066406 1.671875 28.394531 0.566406 22.71875 -1.640625 C 17.039062 -3.847656 12.59375 -7.03125 9.375 -11.1875 C 6.164062 -15.34375 4.390625 -20.375 4.046875 -26.28125 L 3.984375 -27.4375 L 25.890625 -27.4375 L 26.03125 -26.734375 C 26.414062 -24.765625 27.390625 -23.03125 28.953125 -21.53125 C 30.515625 -20.03125 32.523438 -18.875 34.984375 -18.0625 C 37.453125 -17.25 40.1875 -16.84375 43.1875 -16.84375 C 47.894531 -16.84375 51.597656 -17.75 54.296875 -19.5625 C 56.992188 -21.382812 58.34375 -23.734375 58.34375 -26.609375 L 58.34375 -26.671875 C 58.34375 -28.421875 57.847656 -29.894531 56.859375 -31.09375 C 55.878906 -32.300781 54.296875 -33.332031 52.109375 -34.1875 C 49.929688 -35.039062 47.019531 -35.8125 43.375 -36.5 L 33.859375 -38.296875 C 24.691406 -40.015625 17.71875 -43.109375 12.9375 -47.578125 C 8.164062 -52.054688 5.78125 -57.851562 5.78125 -64.96875 L 5.78125 -65.03125 C 5.78125 -69.488281 6.691406 -73.523438 8.515625 -77.140625 C 10.335938 -80.765625 12.894531 -83.859375 16.1875 -86.421875 C 19.488281 -88.992188 23.378906 -90.96875 27.859375 -92.34375 C 32.335938 -93.71875 37.234375 -94.40625 42.546875 -94.40625 C 50.296875 -94.40625 56.890625 -93.257812 62.328125 -90.96875 C 67.773438 -88.675781 71.984375 -85.453125 74.953125 -81.296875 C 77.929688 -77.140625 79.550781 -72.253906 79.8125 -66.640625 L 79.875 -65.296875 L 57.96875 -65.296875 L 57.90625 -66 C 57.5625 -69.039062 56.003906 -71.445312 53.234375 -73.21875 C 50.472656 -75 46.972656 -75.890625 42.734375 -75.890625 C 38.410156 -75.890625 35.066406 -75.007812 32.703125 -73.25 C 30.347656 -71.5 29.171875 -69.296875 29.171875 -66.640625 L 29.171875 -66.578125 C 29.171875 -64.085938 30.316406 -62.113281 32.609375 -60.65625 C 34.898438 -59.207031 38.53125 -58.007812 43.5 -57.0625 L 53.015625 -55.265625 C 62.867188 -53.378906 70.128906 -50.328125 74.796875 -46.109375 C 79.472656 -41.890625 81.8125 -36.070312 81.8125 -28.65625 L 81.8125 -28.59375 C 81.8125 -22.425781 80.253906 -17.082031 77.140625 -12.5625 C 74.035156 -8.039062 69.570312 -4.535156 63.75 -2.046875 C 57.925781 0.429688 50.921875 1.671875 42.734375 1.671875 Z M 42.734375 1.671875 "/></g></g></g><g clip-path="url(#2fba73b1fa)"><g fill="#4e7fff" fill-opacity="1"><g transform="translate(276.135753, 125.525079)"><g><path d="M 38.9375 1.484375 C 31.613281 1.484375 25.285156 0.015625 19.953125 -2.921875 C 14.617188 -5.859375 10.515625 -10.054688 7.640625 -15.515625 C 4.773438 -20.984375 3.34375 -27.484375 3.34375 -35.015625 L 3.34375 -35.09375 C 3.34375 -42.625 4.773438 -49.097656 7.640625 -54.515625 C 10.515625 -59.941406 14.609375 -64.117188 19.921875 -67.046875 C 25.234375 -69.984375 31.507812 -71.453125 38.75 -71.453125 C 43.675781 -71.453125 48.148438 -70.753906 52.171875 -69.359375 C 56.203125 -67.972656 59.660156 -66.003906 62.546875 -63.453125 C 65.441406 -60.910156 67.679688 -57.898438 69.265625 -54.421875 C 70.859375 -50.953125 71.695312 -47.140625 71.78125 -42.984375 L 71.84375 -42.546875 L 50.890625 -42.546875 L 50.828125 -43.1875 C 50.398438 -46.4375 49.175781 -49.078125 47.15625 -51.109375 C 45.144531 -53.148438 42.472656 -54.171875 39.140625 -54.171875 C 35.191406 -54.171875 32.09375 -52.5 29.84375 -49.15625 C 27.59375 -45.8125 26.46875 -41.097656 26.46875 -35.015625 L 26.46875 -34.953125 C 26.46875 -28.785156 27.582031 -24.050781 29.8125 -20.75 C 32.039062 -17.457031 35.171875 -15.8125 39.203125 -15.8125 C 42.546875 -15.8125 45.210938 -16.804688 47.203125 -18.796875 C 49.191406 -20.785156 50.398438 -23.453125 50.828125 -26.796875 L 50.953125 -27.4375 L 71.84375 -27.4375 L 71.84375 -26.984375 C 71.71875 -22.921875 70.882812 -19.160156 69.34375 -15.703125 C 67.800781 -12.253906 65.613281 -9.242188 62.78125 -6.671875 C 59.957031 -4.109375 56.539062 -2.109375 52.53125 -0.671875 C 48.53125 0.765625 44 1.484375 38.9375 1.484375 Z M 38.9375 1.484375 "/></g></g></g></g></g></g></g></svg>