<svg xmlns="http://www.w3.org/2000/svg" xmlns:xlink="http://www.w3.org/1999/xlink" width="1000" zoomAndPan="magnify" viewBox="0 0 375 233.04" height="300" preserveAspectRatio="xMidYMid meet" version="1.0"><defs><g/><clipPath id="9ccc961d8b"><path d="M 342 86 L 374.230469 86 L 374.230469 160 L 342 160 Z M 342 86 " clip-rule="nonzero"/></clipPath></defs><g fill="#000000" fill-opacity="1"><g transform="translate(63.539943, 158.139992)"><g><path d="M 7 0 L 7 -92.71875 L 34.25 -92.71875 L 57.515625 -32.125 L 57.890625 -32.125 L 81.15625 -92.71875 L 108.390625 -92.71875 L 108.390625 0 L 87.640625 0 L 87.640625 -57.953125 L 87.125 -57.953125 L 64.453125 0 L 50.953125 0 L 28.265625 -57.953125 L 27.765625 -57.953125 L 27.765625 0 Z M 7 0 "/></g></g></g><g fill="#000000" fill-opacity="1"><g transform="translate(178.945663, 158.139992)"><g><path d="M 18.5625 22.8125 C 16.34375 22.8125 14.203125 22.703125 12.140625 22.484375 C 10.085938 22.273438 8.414062 22.0625 7.125 21.84375 L 7.125 5.328125 C 7.851562 5.503906 8.878906 5.664062 10.203125 5.8125 C 11.535156 5.96875 13.082031 6.046875 14.84375 6.046875 C 17.238281 6.046875 19.132812 5.671875 20.53125 4.921875 C 21.925781 4.171875 22.898438 3.023438 23.453125 1.484375 L 23.96875 0 L -0.125 -69.96875 L 25.0625 -69.96875 L 37.59375 -17.09375 L 38.171875 -17.09375 L 50.625 -69.96875 L 74.65625 -69.96875 L 52.375 -0.328125 C 50.488281 5.710938 47.976562 10.40625 44.84375 13.75 C 41.71875 17.09375 37.976562 19.4375 33.625 20.78125 C 29.28125 22.132812 24.257812 22.8125 18.5625 22.8125 Z M 18.5625 22.8125 "/></g></g></g><g fill="#1f47af" fill-opacity="1"><g transform="translate(253.49181, 158.139992)"><g><path d="M 42.734375 1.671875 C 35.066406 1.671875 28.394531 0.566406 22.71875 -1.640625 C 17.039062 -3.847656 12.59375 -7.023438 9.375 -11.171875 C 6.164062 -15.328125 4.390625 -20.363281 4.046875 -26.28125 L 3.984375 -27.4375 L 25.890625 -27.4375 L 26.015625 -26.734375 C 26.398438 -24.765625 27.375 -23.03125 28.9375 -21.53125 C 30.507812 -20.03125 32.523438 -18.867188 34.984375 -18.046875 C 37.453125 -17.234375 40.179688 -16.828125 43.171875 -16.828125 C 47.890625 -16.828125 51.597656 -17.738281 54.296875 -19.5625 C 56.992188 -21.382812 58.34375 -23.726562 58.34375 -26.59375 L 58.34375 -26.671875 C 58.34375 -28.421875 57.847656 -29.894531 56.859375 -31.09375 C 55.878906 -32.300781 54.296875 -33.332031 52.109375 -34.1875 C 49.921875 -35.039062 47.007812 -35.8125 43.375 -36.5 L 33.859375 -38.296875 C 24.691406 -40.003906 17.71875 -43.097656 12.9375 -47.578125 C 8.164062 -52.054688 5.78125 -57.851562 5.78125 -64.96875 L 5.78125 -65.03125 C 5.78125 -69.476562 6.691406 -73.507812 8.515625 -77.125 C 10.335938 -80.75 12.894531 -83.847656 16.1875 -86.421875 C 19.488281 -88.992188 23.375 -90.960938 27.84375 -92.328125 C 32.320312 -93.703125 37.21875 -94.390625 42.53125 -94.390625 C 50.289062 -94.390625 56.890625 -93.242188 62.328125 -90.953125 C 67.765625 -88.660156 71.972656 -85.4375 74.953125 -81.28125 C 77.929688 -77.125 79.546875 -72.238281 79.796875 -66.625 L 79.875 -65.28125 L 57.953125 -65.28125 L 57.890625 -65.984375 C 57.546875 -69.023438 55.992188 -71.4375 53.234375 -73.21875 C 50.472656 -75 46.972656 -75.890625 42.734375 -75.890625 C 38.398438 -75.890625 35.054688 -75.007812 32.703125 -73.25 C 30.347656 -71.488281 29.171875 -69.28125 29.171875 -66.625 L 29.171875 -66.5625 C 29.171875 -64.082031 30.316406 -62.113281 32.609375 -60.65625 C 34.898438 -59.195312 38.53125 -58 43.5 -57.0625 L 53.015625 -55.265625 C 62.859375 -53.378906 70.113281 -50.328125 74.78125 -46.109375 C 79.457031 -41.890625 81.796875 -36.070312 81.796875 -28.65625 L 81.796875 -28.59375 C 81.796875 -22.425781 80.242188 -17.082031 77.140625 -12.5625 C 74.035156 -8.039062 69.566406 -4.535156 63.734375 -2.046875 C 57.910156 0.429688 50.910156 1.671875 42.734375 1.671875 Z M 42.734375 1.671875 "/></g></g></g><g clip-path="url(#9ccc961d8b)"><g fill="#1f47af" fill-opacity="1"><g transform="translate(339.146501, 158.139992)"><g><path d="M 38.9375 1.484375 C 31.613281 1.484375 25.285156 0.015625 19.953125 -2.921875 C 14.617188 -5.859375 10.515625 -10.054688 7.640625 -15.515625 C 4.773438 -20.972656 3.34375 -27.472656 3.34375 -35.015625 L 3.34375 -35.078125 C 3.34375 -42.617188 4.773438 -49.097656 7.640625 -54.515625 C 10.515625 -59.929688 14.609375 -64.109375 19.921875 -67.046875 C 25.234375 -69.984375 31.507812 -71.453125 38.75 -71.453125 C 43.675781 -71.453125 48.148438 -70.753906 52.171875 -69.359375 C 56.203125 -67.972656 59.660156 -66.003906 62.546875 -63.453125 C 65.441406 -60.898438 67.679688 -57.890625 69.265625 -54.421875 C 70.847656 -50.953125 71.679688 -47.140625 71.765625 -42.984375 L 71.84375 -42.53125 L 50.890625 -42.53125 L 50.828125 -43.171875 C 50.398438 -46.429688 49.175781 -49.078125 47.15625 -51.109375 C 45.144531 -53.148438 42.46875 -54.171875 39.125 -54.171875 C 35.1875 -54.171875 32.09375 -52.5 29.84375 -49.15625 C 27.59375 -45.8125 26.46875 -41.097656 26.46875 -35.015625 L 26.46875 -34.953125 C 26.46875 -28.785156 27.582031 -24.050781 29.8125 -20.75 C 32.039062 -17.457031 35.171875 -15.8125 39.203125 -15.8125 C 42.535156 -15.8125 45.195312 -16.804688 47.1875 -18.796875 C 49.1875 -20.785156 50.398438 -23.453125 50.828125 -26.796875 L 50.953125 -27.4375 L 71.84375 -27.4375 L 71.84375 -26.984375 C 71.707031 -22.910156 70.867188 -19.148438 69.328125 -15.703125 C 67.785156 -12.253906 65.597656 -9.242188 62.765625 -6.671875 C 59.941406 -4.109375 56.523438 -2.109375 52.515625 -0.671875 C 48.515625 0.765625 43.988281 1.484375 38.9375 1.484375 Z M 38.9375 1.484375 "/></g></g></g></g></svg>