<svg xmlns="http://www.w3.org/2000/svg" xmlns:xlink="http://www.w3.org/1999/xlink" width="500" zoomAndPan="magnify" viewBox="0 0 375 374.999991" height="500" preserveAspectRatio="xMidYMid meet" version="1.2"><defs/><g id="bd4188fb4b"><g style="fill:#000000;fill-opacity:1;"><g transform="translate(37.500002, 257.449355)"><path style="stroke:none" d="M 10.453125 0 L 10.453125 -138.34375 L 51.09375 -138.34375 L 85.796875 -47.9375 L 86.375 -47.9375 L 121.078125 -138.34375 L 161.734375 -138.34375 L 161.734375 0 L 130.765625 0 L 130.765625 -86.46875 L 130 -86.46875 L 96.15625 0 L 76.03125 0 L 42.1875 -86.46875 L 41.421875 -86.46875 L 41.421875 0 Z M 10.453125 0 "/></g></g><g style="fill:#1f47af;fill-opacity:1;"><g transform="translate(209.727316, 257.449355)"><path style="stroke:none" d="M 63.75 2.5 C 52.3125 2.5 42.359375 0.851562 33.890625 -2.4375 C 25.421875 -5.726562 18.789062 -10.472656 14 -16.671875 C 9.207031 -22.878906 6.554688 -30.394531 6.046875 -39.21875 L 5.9375 -40.9375 L 38.640625 -40.9375 L 38.828125 -39.875 C 39.398438 -36.9375 40.851562 -34.347656 43.1875 -32.109375 C 45.519531 -29.878906 48.523438 -28.15625 52.203125 -26.9375 C 55.878906 -25.726562 59.953125 -25.125 64.421875 -25.125 C 71.453125 -25.125 76.976562 -26.476562 81 -29.1875 C 85.03125 -31.90625 87.046875 -35.40625 87.046875 -39.6875 L 87.046875 -39.78125 C 87.046875 -42.40625 86.3125 -44.613281 84.84375 -46.40625 C 83.375 -48.195312 81.007812 -49.726562 77.75 -51 C 74.488281 -52.28125 70.144531 -53.429688 64.71875 -54.453125 L 50.53125 -57.140625 C 36.84375 -59.691406 26.4375 -64.304688 19.3125 -70.984375 C 12.1875 -77.671875 8.625 -86.316406 8.625 -96.921875 L 8.625 -97.015625 C 8.625 -103.660156 9.984375 -109.679688 12.703125 -115.078125 C 15.421875 -120.484375 19.238281 -125.101562 24.15625 -128.9375 C 29.082031 -132.78125 34.882812 -135.722656 41.5625 -137.765625 C 48.238281 -139.804688 55.539062 -140.828125 63.46875 -140.828125 C 75.03125 -140.828125 84.867188 -139.117188 92.984375 -135.703125 C 101.109375 -132.285156 107.390625 -127.476562 111.828125 -121.28125 C 116.273438 -115.082031 118.691406 -107.796875 119.078125 -99.421875 L 119.171875 -97.40625 L 86.46875 -97.40625 L 86.375 -98.453125 C 85.863281 -102.992188 83.546875 -106.585938 79.421875 -109.234375 C 75.304688 -111.890625 70.082031 -113.21875 63.75 -113.21875 C 57.300781 -113.21875 52.316406 -111.90625 48.796875 -109.28125 C 45.285156 -106.664062 43.53125 -103.378906 43.53125 -99.421875 L 43.53125 -99.328125 C 43.53125 -95.617188 45.238281 -92.675781 48.65625 -90.5 C 52.070312 -88.332031 57.488281 -86.546875 64.90625 -85.140625 L 79.09375 -82.453125 C 93.789062 -79.640625 104.625 -75.082031 111.59375 -68.78125 C 118.5625 -62.488281 122.046875 -53.816406 122.046875 -42.765625 L 122.046875 -42.65625 C 122.046875 -33.457031 119.726562 -25.484375 115.09375 -18.734375 C 110.457031 -11.992188 103.789062 -6.769531 95.09375 -3.0625 C 86.40625 0.644531 75.957031 2.5 63.75 2.5 Z M 63.75 2.5 "/></g></g></g></svg>